<svg id="Layer_2" data-name="Layer 2" xmlns="http://www.w3.org/2000/svg" viewBox="0 0 283.46 283.46"><defs><style>.cls-1{fill:#927d73;}</style></defs><title>illustratiefacebook</title><path class="cls-1" d="M22.67,139.26c0-15.63-1.86-31.26-1.41-46.88C22.53,48.27,47.81,23,92.05,22.81c40.24-.16,80.59-.53,120.69,2.16,27.12,1.82,47.45,30.33,48.52,64.64,1,32.86,2.29,66-.69,98.63-5.27,57.71-27.36,71.61-76.19,72.26-35,.46-70,.24-105,.09-24.47-.1-50.12-23.11-54-48.15-1.09-7.11-2.42-14.26-2.58-21.41-.38-17.24-.12-34.5-.12-51.76ZM146.14,57.54c-31.42.07-34.53,3.39-35.87,35.87-.37,9,3.52,19.81-12.87,20.82-12.14.75-10.48,13.11-11.19,20.24-.65,6.5.71,16.79,12,16.63,12.83-.19,11,7.94,12.67,15.93,2,10-.07,19.54-.09,29.28,0,14-9.73,36.5,13,37.18,21.57.65,18.6-21.75,18.75-37.63.09-9.84-.09-19.68-.37-29.51-.31-10.62-.47-18,15.36-15.75,15.13,2.16,17-3.75,14-22.53-2.39-14.93-13.39-16.26-24.05-16.59-12.93-.4.21-15.71,7.93-17.41,16.59-3.66,19.35-14.12,16.5-27.17C168.51,51,154.34,60.31,146.14,57.54Z"/></svg>