<svg id="Layer_2" data-name="Layer 2" xmlns="http://www.w3.org/2000/svg" viewBox="0 0 300 300"><defs><style>.cls-1,.cls-4{fill:#fff;}.cls-1{stroke:#000;stroke-miterlimit:10;}.cls-2{fill:#927d73;}.cls-3{fill:#917d73;}.cls-5{fill:#968279;}.cls-6{font-size:46.89px;font-family:GillSans-UltraBold, Gill Sans;font-weight:700;}.cls-6,.cls-7{fill:#f1edec;}</style></defs><title>illustratie </title><rect class="cls-1" x="180" width="30" height="30"/><rect class="cls-1" x="120" width="30" height="30"/><rect class="cls-1" x="60" width="30" height="30"/><rect class="cls-1" x="30" width="30" height="30"/><path class="cls-2" d="M60.18,14.69c0-1.94-.23-3.89-.18-5.83.16-5.49,3.3-8.63,8.8-8.65,5,0,10-.07,15,.27,3.37.23,5.9,3.77,6,8a100.93,100.93,0,0,1-.09,12.27c-.66,7.18-3.4,8.91-9.47,9-4.35.06-8.71,0-13.06,0a7.46,7.46,0,0,1-6.71-6,20.57,20.57,0,0,1-.32-2.66c0-2.14,0-4.29,0-6.44ZM75.54,4.53c-3.91,0-4.29.42-4.46,4.46,0,1.12.44,2.46-1.6,2.59-1.51.09-1.3,1.63-1.39,2.52s.09,2.09,1.5,2.07c1.6,0,1.37,1,1.58,2a17.41,17.41,0,0,1,0,3.64c0,1.75-1.21,4.54,1.62,4.62,2.68.08,2.31-2.71,2.33-4.68,0-1.22,0-2.45,0-3.67S75,15.82,77,16.1s2.12-.47,1.74-2.8c-.3-1.86-1.66-2-3-2.06-1.61-.05,0-2,1-2.16,2.06-.45,2.41-1.76,2.05-3.38C78.32,3.71,76.56,4.88,75.54,4.53Z"/><g id="_0SuvFl.tif" data-name="0SuvFl.tif"><path class="cls-3" d="M120,24.95c3.26-.11,6-.67,8.59-2.68-2.65-.59-4.58-1.81-5.54-4.22.63-.46,1.37.13,2-.53-2.53-1.17-4.17-3-4.31-5.9.83-.24,1.45.64,2.32.2A6.84,6.84,0,0,1,121,5.23c.26-1.22.63-1.68,1.7-.51a17.77,17.77,0,0,0,10.44,5.41c.92.16,1.59.34,1.48-1.2a5.92,5.92,0,0,1,3.24-5.67,5.47,5.47,0,0,1,6.19.1,3.57,3.57,0,0,0,4.21.25c.3-.15.63-.25,1.16-.46-.34,1.37-1.27,2.11-2.12,3.22l2.65-.63c.22.33-.07.56-.25.69-2,1.42-2.35,3.46-2.63,5.77-1.45,12.06-15.23,19.16-26,13.48C120.84,25.54,120.62,25.36,120,24.95Z"/></g><circle class="cls-4" cx="195" cy="15" r="13.18"/><g id="jmZMS2.tif"><path class="cls-2" d="M183.59,2.58C180.66,5,180,11.67,180,11.67v6.22c.2,2.82.76,3.48,1.24,5.21,1,3.52,3.4,5.11,6.51,6.09a23.5,23.5,0,0,0,4.47.71,25.5,25.5,0,0,0,10.22-.81,9.52,9.52,0,0,0,6.81-7.36,33.45,33.45,0,0,0,.22-13.14c-1-6.26-10.79-8.68-10.79-8.68h-6.91C191.38-.08,186,.53,183.59,2.58Zm24,12.34a12.74,12.74,0,0,1-25.48-.29,12.74,12.74,0,1,1,25.48.29Z"/></g><path class="cls-5" d="M200.84,20c-.31,1.09-1,.93-1.52.43a33.89,33.89,0,0,1-3-3c-.91-1.06-1.64-1.14-2.59-.06s-2,2-3,3c-.36.35-.82.67-1.29.22s-.22-.93.14-1.31c1-1,1.94-2.06,3-3s1.11-1.66,0-2.59a35.51,35.51,0,0,1-2.84-2.8c-.4-.42-.88-1-.34-1.51s1.07-.12,1.5.31c.95.93,1.94,1.83,2.81,2.82s1.69,1.09,2.63,0,1.86-1.9,2.82-2.82c.43-.42,1-.82,1.49-.22s0,.94-.32,1.3a30.07,30.07,0,0,1-2.65,2.64c-1.43,1.15-1.19,2,.06,3.14S200.21,18.57,200.84,20Z"/><rect class="cls-1" width="30" height="30"/><rect class="cls-1" x="90" width="30" height="30"/><rect class="cls-1" x="150" width="30" height="30"/><rect class="cls-1" x="210" width="30" height="30"/><rect class="cls-1" x="240" width="30" height="30"/><rect class="cls-1" x="270" width="30" height="30"/><rect class="cls-1" y="30" width="30" height="30"/><rect class="cls-1" x="30" y="30" width="30" height="30"/><rect class="cls-1" x="60" y="30" width="30" height="30"/><rect class="cls-1" x="90" y="30" width="30" height="30"/><rect class="cls-1" x="120" y="30" width="30" height="30"/><rect class="cls-1" x="150" y="30" width="30" height="30"/><rect class="cls-1" x="180" y="30" width="30" height="30"/><rect class="cls-1" x="210" y="30" width="30" height="30"/><rect class="cls-1" x="240" y="30" width="30" height="30"/><rect class="cls-1" x="270" y="30" width="30" height="30"/><rect class="cls-1" y="60" width="30" height="30"/><rect class="cls-1" x="30" y="60" width="30" height="30"/><rect class="cls-1" x="60" y="60" width="30" height="30"/><rect class="cls-1" x="90" y="60" width="30" height="30"/><rect class="cls-1" x="120" y="60" width="30" height="30"/><rect class="cls-1" x="150" y="60" width="30" height="30"/><rect class="cls-1" x="180" y="60" width="30" height="30"/><rect class="cls-1" x="210" y="60" width="30" height="30"/><rect class="cls-1" x="240" y="60" width="30" height="30"/><rect class="cls-1" x="270" y="60" width="30" height="30"/><rect class="cls-1" y="90" width="30" height="30"/><rect class="cls-1" x="30" y="90" width="30" height="30"/><rect class="cls-1" x="60" y="90" width="30" height="30"/><rect class="cls-1" x="90" y="90" width="30" height="30"/><rect class="cls-1" x="120" y="90" width="30" height="30"/><rect class="cls-1" x="150" y="90" width="30" height="30"/><rect class="cls-1" x="180" y="90" width="30" height="30"/><rect class="cls-1" x="210" y="90" width="30" height="30"/><rect class="cls-1" x="240" y="90" width="30" height="30"/><rect class="cls-1" x="270" y="90" width="30" height="30"/><rect class="cls-1" y="120" width="30" height="30"/><rect class="cls-1" x="30" y="120" width="30" height="30"/><rect class="cls-1" x="60" y="120" width="30" height="30"/><rect class="cls-1" x="90" y="120" width="30" height="30"/><rect class="cls-1" x="120" y="120" width="30" height="30"/><rect class="cls-1" x="150" y="120" width="30" height="30"/><rect class="cls-1" x="180" y="120" width="30" height="30"/><rect class="cls-1" x="210" y="120" width="30" height="30"/><rect class="cls-1" x="240" y="120" width="30" height="30"/><rect class="cls-1" x="270" y="120" width="30" height="30"/><rect class="cls-1" y="150" width="30" height="30"/><rect class="cls-1" x="30" y="150" width="30" height="30"/><rect class="cls-1" x="60" y="150" width="30" height="30"/><rect class="cls-1" x="90" y="150" width="30" height="30"/><rect class="cls-1" x="120" y="150" width="30" height="30"/><rect class="cls-1" x="150" y="150" width="30" height="30"/><rect class="cls-1" x="180" y="150" width="30" height="30"/><rect class="cls-1" x="210" y="150" width="30" height="30"/><rect class="cls-1" x="240" y="150" width="30" height="30"/><rect class="cls-1" x="270" y="150" width="30" height="30"/><rect class="cls-1" y="180" width="30" height="30"/><rect class="cls-1" x="30" y="180" width="30" height="30"/><rect class="cls-1" x="60" y="180" width="30" height="30"/><rect class="cls-1" x="90" y="180" width="30" height="30"/><rect class="cls-1" x="120" y="180" width="30" height="30"/><rect class="cls-1" x="150" y="180" width="30" height="30"/><rect class="cls-1" x="180" y="180" width="30" height="30"/><rect class="cls-1" x="210" y="180" width="30" height="30"/><rect class="cls-1" x="240" y="180" width="30" height="30"/><rect class="cls-1" x="270" y="180" width="30" height="30"/><rect class="cls-1" y="210" width="30" height="30"/><rect class="cls-1" x="30" y="210" width="30" height="30"/><rect class="cls-1" x="60" y="210" width="30" height="30"/><rect class="cls-1" x="90" y="210" width="30" height="30"/><rect class="cls-1" x="120" y="210" width="30" height="30"/><rect class="cls-1" x="150" y="210" width="30" height="30"/><rect class="cls-1" x="180" y="210" width="30" height="30"/><rect class="cls-1" x="210" y="210" width="30" height="30"/><rect class="cls-1" x="240" y="210" width="30" height="30"/><rect class="cls-1" x="270" y="210" width="30" height="30"/><rect class="cls-1" y="240" width="30" height="30"/><rect class="cls-1" x="30" y="240" width="30" height="30"/><rect class="cls-1" x="60" y="240" width="30" height="30"/><rect class="cls-1" x="90" y="240" width="30" height="30"/><rect class="cls-1" x="120" y="240" width="30" height="30"/><rect class="cls-1" x="150" y="240" width="30" height="30"/><rect class="cls-1" x="180" y="240" width="30" height="30"/><rect class="cls-1" x="210" y="240" width="30" height="30"/><rect class="cls-1" x="240" y="240" width="30" height="30"/><rect class="cls-1" x="270" y="240" width="30" height="30"/><rect class="cls-1" y="270" width="30" height="30"/><rect class="cls-1" x="30" y="270" width="30" height="30"/><rect class="cls-1" x="60" y="270" width="30" height="30"/><rect class="cls-1" x="90" y="270" width="30" height="30"/><rect class="cls-1" x="120" y="270" width="30" height="30"/><rect class="cls-1" x="150" y="270" width="30" height="30"/><rect class="cls-1" x="180" y="270" width="30" height="30"/><rect class="cls-1" x="210" y="270" width="30" height="30"/><rect class="cls-1" x="240" y="270" width="30" height="30"/><rect class="cls-1" x="270" y="270" width="30" height="30"/><rect class="cls-1" y="300" width="30" height="30"/><rect class="cls-1" x="30" y="300" width="30" height="30"/><rect class="cls-1" x="60" y="300" width="30" height="30"/><rect class="cls-1" x="90" y="300" width="30" height="30"/><rect class="cls-1" x="120" y="300" width="30" height="30"/><rect class="cls-1" x="150" y="300" width="30" height="30"/><rect class="cls-1" x="180" y="300" width="30" height="30"/><rect class="cls-1" x="210" y="300" width="30" height="30"/><rect class="cls-1" x="240" y="300" width="30" height="30"/><rect class="cls-1" x="270" y="300" width="30" height="30"/><path class="cls-2" d="M15,30C7.09,30.27-.4,23.34,0,14.33a15,15,0,1,1,30,1.45C29.7,23.25,23.25,30.2,15,30Zm0-1.33A13.52,13.52,0,0,0,28.59,14.79,13.39,13.39,0,0,0,15.77,1.5,13.58,13.58,0,1,0,15,28.63Z"/><path class="cls-2" d="M21.86,12.79c0,2.15,0,4.3,0,6.45a3.63,3.63,0,0,1-.54,2,3.39,3.39,0,0,1-4.32.64,2.3,2.3,0,0,1,.46-3.74,14.11,14.11,0,0,1,2.44-.66.68.68,0,0,0,.62-.64,56.15,56.15,0,0,0,.13-6c0-.87-.21-1-1.1-.77q-3.09.65-6.19,1.24c-.88.17-1.09.37-1.09,1.29,0,2.13,0,4.26,0,6.39a19.24,19.24,0,0,1,0,2.68,2.66,2.66,0,0,1-2.71,2.55,2.22,2.22,0,0,1-2.43-.89,2.28,2.28,0,0,1,1.15-3.47,17.67,17.67,0,0,1,2-.5c.59-.11.76-.44.76-1,0-3.37,0-6.74,0-10.11,0-.88.25-1.14,1.11-1.3,2.51-.49,5-1,7.52-1.52.36-.07.72-.16,1.09-.2.82-.1,1,.11,1.05,1C21.86,8.4,21.86,10.59,21.86,12.79Zm-1.06-5q0-.13,0-.27c0-1.14-.2-1.3-1.34-1.05l-.2,0c-2.09.43-4.19.8-6.26,1.3a.93.93,0,0,0-.86,1.1c0,.22,0,.44,0,.66,0,.78.18.95.95.79,1.13-.23,2.24-.55,3.38-.73a13.07,13.07,0,0,1,3.74-.55c.35,0,.57-.18.58-.55S20.79,8.08,20.79,7.83Zm0,11.38c0-.76-.18-1-.79-.82a15.57,15.57,0,0,0-1.8.53,1.3,1.3,0,0,0-.85,1.4,1.2,1.2,0,0,0,1.3,1C20.25,21.17,20.73,20.77,20.79,19.22Zm-11.49,4c1.31.09,2-.86,2-2.25,0-.61-.24-.8-.81-.65s-1.08.32-1.61.5a1.28,1.28,0,0,0-1,1.46C8,22.9,8.39,23.17,9.3,23.18Z"/><text class="cls-6" transform="translate(-3.22 212.74)">MY____<tspan x="0" y="58.61">TUNES</tspan></text><path class="cls-7" d="M163.67,201.83v.57h-.61v-.57h-.64v-.19h-3v13.22a3,3,0,0,0,3-3h.06v-1.81h1.26v.48h1.71v-8.74Z"/><path class="cls-7" d="M155.09,201.83v.57h.61v-.57h.64v-.19h3v13.22a3,3,0,0,1-3-3h-.06v-1.81h-1.26v.48h-1.71v-8.74Z"/><rect class="cls-7" x="151.83" y="199.51" width="15.09" height="2.32"/><path class="cls-7" d="M166.92,200.25l8.43-3.74s5.55-1.2,7.18,4.94c.17.73-.67.19-.67.19s-2-5.93-7.33-3.16a42.19,42.19,0,0,1-7.61,3.34Z"/><path class="cls-4" d="M18.3,60l6.61,7.62L31.54,60H47.23V96.55H31V78.25l-6.13,7.07-6.13-7.07v18.3H2.59V60Z"/><path class="cls-4" d="M67.27,60l5.65,8.29L78.55,60H94.94L81,80.6v16H64.83v-16L50.89,60Z"/><path class="cls-4" d="M119.94,100.23v2.44H94.84v-2.44Z"/><path class="cls-4" d="M144.46,100.23v2.44h-25.1v-2.44Z"/><path class="cls-4" d="M169,100.23v2.44h-25.1v-2.44Z"/><path class="cls-4" d="M193.51,100.23v2.44h-25.1v-2.44Z"/><path class="cls-4" d="M32.48,121.31V137.5H24.33v20.36H8.14V137.5H0V121.31Z"/><path class="cls-4" d="M72.76,121.31v16.91a30.72,30.72,0,0,1-.53,5.92A19.42,19.42,0,0,1,70.64,149,15.75,15.75,0,0,1,68,152.86a17.14,17.14,0,0,1-3.82,3,18.51,18.51,0,0,1-9.58,2.59,19.14,19.14,0,0,1-9.27-2.39,16.2,16.2,0,0,1-6.66-6.61q-2.23-4.19-2.23-11.9V121.31H52.59v17.22A8,8,0,0,0,53,141.6a1.56,1.56,0,0,0,1.51.81,1.73,1.73,0,0,0,1-.29,1.88,1.88,0,0,0,.62-.91,6.34,6.34,0,0,0,.31-1.6q.08-1,.08-2.37V121.31Z"/><path class="cls-4" d="M91,121.31l8.43,12.21h.1V121.31h16.19v36.83H103.41l-7.76-11.38h-.1v11.09H79.39V121.31Z"/><path class="cls-4" d="M153.13,121.31v9.17H139V135h9.87v9.17H139v4.5h14.18v9.17H122.79V121.31Z"/><path class="cls-4" d="M174.06,120.74q1.87,0,3.78.18t4,.51q2,.33,3.76.77a27.54,27.54,0,0,1,3.16,1l-4,11.52a14.9,14.9,0,0,0-4.22-3.94,9.28,9.28,0,0,0-4.86-1.4,3.19,3.19,0,0,0-2.18.61,2,2,0,0,0-.67,1.52q0,.86,1.31,1.65a26.07,26.07,0,0,0,4,1.82q7.11,2.61,9.2,5.2a9.71,9.71,0,0,1,2,6.27,10.23,10.23,0,0,1-4.42,8.92q-4.42,3.1-13.16,3.1a57.57,57.57,0,0,1-8.65-.62,38.86,38.86,0,0,1-8-2.13l4-12.21a13.45,13.45,0,0,0,4.24,4.24,9.2,9.2,0,0,0,4.91,1.6,3.15,3.15,0,0,0,2-.59,1.78,1.78,0,0,0,.78-1.47,2.24,2.24,0,0,0-1.09-1.83,16,16,0,0,0-3.39-1.66q-5.65-2.13-7.76-4.62a9.33,9.33,0,0,1-2.08-6.15q0-6.11,4.41-9.18T174.06,120.74Z"/><path class="cls-4" d="M173.69,85.13v.6H173v-.6h-.67v-.2H169.2V98.76a3.1,3.1,0,0,0,3.1-3.1h.07V93.77h1.32v.51h1.79V85.13Z"/><path class="cls-4" d="M164.71,85.13v.6h.64v-.6H166v-.2h3.17V98.76a3.1,3.1,0,0,1-3.1-3.1H166V93.77h-1.32v.51h-1.79V85.13Z"/><rect class="cls-4" x="168.82" y="95.66" width="0.77" height="4.58"/><rect class="cls-4" x="161.31" y="82.7" width="15.79" height="2.43"/><path class="cls-4" d="M177.09,83.48l8.81-3.91s5.8-1.26,7.51,5.17c.18.76-.7.2-.7.2s-2.07-6.21-7.67-3.31a44.13,44.13,0,0,1-8,3.5Z"/><circle class="cls-4" cx="255" cy="15" r="13.18"/><g id="jmZMS2.tif-2" data-name="jmZMS2.tif"><path class="cls-2" d="M267.35,3.65c-2.45-2.91-9-3.57-9-3.57h-6.19c-2.81.2-3.46.76-5.19,1.23-3.5,1-5.08,3.38-6.06,6.47a23.37,23.37,0,0,0-.7,4.44,25.36,25.36,0,0,0,.8,10.16,9.47,9.47,0,0,0,7.31,6.77,33.26,33.26,0,0,0,13.07.22c6.22-1,8.63-10.73,8.63-10.73V11.77C270,11.4,269.39,6.08,267.35,3.65ZM255.07,27.53a12.75,12.75,0,0,1-12.52-12.81,12.67,12.67,0,1,1,25.34.29A12.75,12.75,0,0,1,255.07,27.53Z"/><path class="cls-2" d="M264.14,18.61c-.13.26-.2.65-.42.82-.56.41-1.1.1-1.52-.29a41.94,41.94,0,0,1-3.91-3.84c-2-2.42-3.64-2.16-5.52.09a43.57,43.57,0,0,1-3.93,3.83c-.43.4-1,.66-1.52.14a1,1,0,0,1,.12-1.51c2.24-2.28,4.49-4.56,6.8-6.78a1.85,1.85,0,0,1,2.77.08c2.22,2.15,4.39,4.34,6.57,6.53A4.9,4.9,0,0,1,264.14,18.61Z"/></g></svg>