<svg id="Layer_2" data-name="Layer 2" xmlns="http://www.w3.org/2000/svg" viewBox="0 0 207.09 78.95"><defs><style>.cls-1{fill:#927d73;}</style></defs><title>illustratielogo_wit</title><path class="cls-1" d="M10.26,16.71l4.31,5,4.33-5H29.14V40.55H18.58V28.62l-4,4.61-4-4.61V40.55H0V16.71Z"/><path class="cls-1" d="M42.22,16.71l3.69,5.41,3.67-5.41H60.26L51.19,30.15V40.55H40.62V30.15L31.53,16.71Z"/><path class="cls-1" d="M78.15,39.28v1.59H61.78V39.28Z"/><path class="cls-1" d="M94.15,39.28v1.59H77.78V39.28Z"/><path class="cls-1" d="M110.15,39.28v1.59H93.78V39.28Z"/><path class="cls-1" d="M126.15,39.28v1.59H109.78V39.28Z"/><path class="cls-1" d="M21.09,48V58.58H15.78V71.86H5.22V58.58H-.1V48Z"/><path class="cls-1" d="M47.37,48V59A20,20,0,0,1,47,62.91a12.67,12.67,0,0,1-1,3.16,10.27,10.27,0,0,1-1.75,2.53,11.18,11.18,0,0,1-2.49,2,12.07,12.07,0,0,1-6.25,1.69,12.48,12.48,0,0,1-6-1.56,10.57,10.57,0,0,1-4.34-4.31,16.83,16.83,0,0,1-1.45-7.77V48H34.22V59.25a5.21,5.21,0,0,0,.27,2,1,1,0,0,0,1,.53,1.13,1.13,0,0,0,.68-.19,1.23,1.23,0,0,0,.41-.59,4.14,4.14,0,0,0,.2-1q.05-.64.05-1.55V48Z"/><path class="cls-1" d="M59.25,48l5.5,8h.06V48H75.37V72h-8l-5.06-7.42h-.06v7.23H51.7V48Z"/><path class="cls-1" d="M99.81,48v6H90.56v3H97v6H90.56v2.94h9.25v6H80V48Z"/><path class="cls-1" d="M113.47,47.64q1.22,0,2.47.12t2.58.34q1.33.22,2.45.5a18,18,0,0,1,2.06.64l-2.62,7.52a9.72,9.72,0,0,0-2.75-2.57,6.05,6.05,0,0,0-3.17-.91,2.08,2.08,0,0,0-1.42.4,1.29,1.29,0,0,0-.44,1q0,.56.85,1.08a17,17,0,0,0,2.63,1.19q4.64,1.7,6,3.39a6.33,6.33,0,0,1,1.33,4.09,6.68,6.68,0,0,1-2.88,5.82q-2.88,2-8.59,2a37.56,37.56,0,0,1-5.64-.41,25.35,25.35,0,0,1-5.25-1.39l2.58-8a8.78,8.78,0,0,0,2.77,2.77,6,6,0,0,0,3.2,1,2.06,2.06,0,0,0,1.27-.38,1.16,1.16,0,0,0,.51-1,1.46,1.46,0,0,0-.71-1.2,10.44,10.44,0,0,0-2.21-1.09,12.41,12.41,0,0,1-5.06-3,6.09,6.09,0,0,1-1.36-4,6.83,6.83,0,0,1,2.88-6Q107.81,47.64,113.47,47.64Z"/><path class="cls-1" d="M113.22,29.42v.39h-.42v-.39h-.44v-.13h-2.07v9a2,2,0,0,0,2-2h0V35.06h.86v.33h1.17v-6Z"/><path class="cls-1" d="M107.37,29.42v.39h.42v-.39h.44v-.13h2.07v9a2,2,0,0,1-2-2h0V35.06h-.86v.33H106.2v-6Z"/><rect class="cls-1" x="105.14" y="27.84" width="10.3" height="1.58"/><path class="cls-1" d="M115.44,28.35l5.75-2.55a4.17,4.17,0,0,1,4.9,3.37c.12.5-.45.13-.45.13s-1.35-4-5-2.16a28.79,28.79,0,0,1-5.19,2.28Z"/></svg>