<svg id="Layer_2" data-name="Layer 2" xmlns="http://www.w3.org/2000/svg" viewBox="0 0 283.46 78.95"><defs><style>.cls-1{font-size:32px;font-family:GillSans-UltraBold, Gill Sans;font-weight:700;}.cls-1,.cls-2{fill:#927d73;}</style></defs><title>illustratielogo_wit</title><text class="cls-1" transform="translate(75.7 31.86)">MY____<tspan x="0" y="40">TUNES</tspan></text><path class="cls-2" d="M189.59,24.41v.39h-.42v-.39h-.44v-.13h-2.07v9a2,2,0,0,0,2-2h0V30h.86v.33h1.17v-6Z"/><path class="cls-2" d="M183.74,24.41v.39h.42v-.39h.44v-.13h2.07v9a2,2,0,0,1-2-2h0V30h-.86v.33h-1.17v-6Z"/><rect class="cls-2" x="181.52" y="22.83" width="10.3" height="1.58"/><path class="cls-2" d="M191.82,23.33l5.75-2.55a4.17,4.17,0,0,1,4.9,3.37c.12.5-.45.13-.45.13s-1.35-4-5-2.16a28.79,28.79,0,0,1-5.19,2.28Z"/></svg>