<svg id="Layer_2" data-name="Layer 2" xmlns="http://www.w3.org/2000/svg" viewBox="0 0 283.46 283.46"><defs><style>.cls-1{fill:#917d73;}</style></defs><title>illustratieTwitter</title><g id="_0SuvFl.tif" data-name="0SuvFl.tif"><path class="cls-1" d="M25.47,215.24c24.32-.8,44.6-5,64.17-20-19.79-4.4-34.21-13.5-41.37-31.53,4.71-3.44,10.24,1,15-4-18.89-8.77-31.17-22.44-32.18-44,6.2-1.8,10.87,4.79,17.32,1.47C34.74,103.33,28.57,87.25,32.73,68c2-9.12,4.72-12.54,12.72-3.84,21,22.83,47.69,35.24,78,40.42,6.84,1.17,11.87,2.53,11-9-1.36-18.5,8.34-33.08,24.21-42.35,15.19-8.87,32.25-9.46,46.2.74,11.39,8.33,20.57,7.25,31.41,1.85,2.25-1.12,4.7-1.86,8.67-3.41-2.53,10.2-9.45,15.74-15.8,24l19.79-4.73c1.62,2.48-.51,4.19-1.84,5.14-14.92,10.63-17.57,25.87-19.64,43.06C216.68,210,113.74,263,33.54,220.59,31.74,219.64,30.12,218.35,25.47,215.24Z"/></g></svg>